<?xml version="1.0" encoding="UTF-8"?> <!-- Creator: CorelDRAW 2020 (64-Bit) --> <svg xmlns="http://www.w3.org/2000/svg" xmlns:xlink="http://www.w3.org/1999/xlink" xmlns:xodm="http://www.corel.com/coreldraw/odm/2003" xml:space="preserve" width="55.3106mm" height="22.7137mm" style="shape-rendering:geometricPrecision; text-rendering:geometricPrecision; image-rendering:optimizeQuality; fill-rule:evenodd; clip-rule:evenodd" viewBox="0 0 392.78 161.3"> <defs> <style type="text/css"> <![CDATA[ .fil0 {fill:#2660AB} .fil1 {fill:#82C4CE} ]]> </style> </defs> <g id="Слой_x0020_1"> <metadata id="CorelCorpID_0Corel-Layer"></metadata> <g id="_1743738838528"> <path class="fil0" d="M176.66 35.54c0,-19.13 23.7,-29.44 38.51,-16.32 15.32,13.57 4.93,38.51 -15.64,38.51 -11.77,0 -22.87,-10.37 -22.87,-22.2zm-20.18 -2.02l0 2.69c0,19.15 20.87,34.3 40.36,34.3 10.82,0 18.95,-0.68 28.39,-6.59 22.69,-14.2 23.39,-39.77 3.71,-54.44 -18.1,-13.5 -45.66,-13.02 -63.22,4.36 -4.33,4.28 -9.25,11.41 -9.25,19.68z"></path> <path class="fil0" d="M88.54 69.18l17.49 0 0 -53.14c10.28,0 21.52,-2.31 21.52,9.42 0,11.6 -12.79,9.42 -20.18,9.42 0.47,1.76 1.71,3.07 2.9,4.5 1.28,1.55 2.06,2.56 3.31,4.09l20.02 25.72 24.21 0c-0.59,-2.22 -0.9,-1.95 -2.52,-3.54l-14.77 -16.17c-2.33,-2.79 -5.08,-5.33 -5.58,-7.2 18.38,-4.28 19.77,-40.36 -10.76,-40.36l-35.65 0 0 67.26z"></path> <polygon class="fil0" points="254.01,69.18 271.5,69.18 271.5,40.92 304.46,40.92 304.46,69.18 321.95,69.18 321.95,1.91 304.46,1.91 304.46,26.8 271.5,26.8 271.5,1.91 254.01,1.91 "></polygon> <path class="fil1" d="M34.06 100.79l-20.18 -0.67c1.89,2.83 4.08,5.13 6.05,8.07 4.68,0 7.73,1.12 12.49,0.39 15.66,-2.4 13.37,-0.06 33.67,-6.69 6.99,-2.28 12.91,-4.52 20,-6.9 13.46,-4.53 21.49,-5.88 34.68,-4.91 9.21,0.67 23.53,6.13 31.91,9.12 35.78,12.77 53.01,14.58 89.31,1.02 41.02,-15.32 45.01,-13.09 83.56,-0.35 6.82,2.25 12.78,4.39 20.21,6.02 6.56,1.44 15.83,2.97 23.26,2.97 3.37,0 4.14,-0.67 8.07,-0.67 1.25,-2.37 1.17,-1.99 2.78,-3.94 1.09,-1.31 2.14,-2.44 2.6,-4.13 -3.41,0 -3.66,0.67 -7.4,0.67 -26.14,0 -27.3,-1.42 -52.04,-9.84 -37.15,-12.65 -46.02,-11.22 -82.41,1.86 -58.24,20.94 -65.65,1.67 -112.27,-8.97 -11,-2.51 -22.66,-1.77 -33.65,0.94 -6.7,1.65 -13.04,3.85 -19.55,6.01 -10.95,3.65 -27,10 -41.12,10z"></path> <path class="fil0" d="M39.44 70.52c9.24,0 13.59,0.27 22.4,-3.16 14.42,-5.62 11.23,-5.53 11.23,-29.8 0,-1.55 -0.47,-2.02 -2.02,-2.02l-16.14 0 0 17.49c0,2.98 -8.04,4.71 -11.43,4.71 -11.95,0 -22.87,-9.25 -22.87,-22.87 0,-12.71 10.55,-21.52 24.89,-21.52 7.33,0 14.02,2.31 20.09,4.79 2.08,0.85 3.8,2.06 6.14,2.6l0 -12.11c-12.13,-6.42 -21.56,-10.72 -37.86,-7.59 -12.86,2.47 -23.36,9.04 -29.13,18.62 -9.5,15.77 -3.65,30.45 8.32,40.92 6.04,5.28 17.87,9.93 26.39,9.93z"></path> <path class="fil0" d="M340.78 3.93l0 63.23c0,1.55 0.47,2.02 2.02,2.02l47.76 0c3.16,0 2.02,-4.13 2.02,-12.11 0,-1.55 -0.47,-2.02 -2.02,-2.02l-31.61 0 0 -14.13 24.89 0 0 -14.13 -24.89 0 0 -10.76 29.6 0 0 -14.13 -45.74 0c-1.55,0 -2.02,0.47 -2.02,2.02z"></path> <path class="fil1" d="M41.46 125.68l0 1.35c9.95,2.66 -0.57,8.34 24.3,0.76 5.02,-1.53 9.23,-3.31 14.46,-5.05 32.8,-10.94 41.28,-9.02 74.33,2.86 19.61,7.05 25.9,9.5 47.67,9.5 15.61,0 27.95,-5.13 39.93,-9.17 34.27,-11.55 40.14,-14.82 75.34,-3.19 5.1,1.69 9.35,3.34 14.45,5.06 13.84,4.64 13.85,5.03 19.31,1.64 1.71,-1.07 2.35,-1.88 4.32,-2.4l0 -1.35c-14.57,0 -48.35,-17.49 -67.94,-17.49 -17.99,0 -29.79,3.46 -46.41,10.09 -33.92,13.53 -51.49,11.65 -84.34,0.26 -36.53,-12.67 -44.29,-14.44 -81.05,-2.19 -7.85,2.62 -25.1,9.33 -34.39,9.33z"></path> <path class="fil1" d="M72.4 143.17c1.09,1.49 1.86,1.42 3.79,2.26 1.16,0.5 3.66,1.72 4.75,2.01 3.44,0.92 16.11,-6.3 33.16,-6.3 23.99,0 52.62,18.71 78.03,19.51 7.12,0.22 0.72,1.26 11.54,0.1 20.7,-2.22 18.4,-2.37 37.65,-8.76 24.48,-8.13 36.14,-15.42 64.26,-7.25 17.8,5.18 6.65,1.99 19.07,-0.91 -1.63,-2.23 -15.11,-5.72 -18.3,-6.59 -17.28,-4.73 -27.59,-4.7 -44.8,-0 -5.93,1.62 -12.71,3.89 -18.68,6.2 -33.85,13.11 -54.48,13.41 -88.6,-0.09 -22.12,-8.75 -39.79,-13.02 -62.95,-6.17 -6.09,1.8 -12.97,4.59 -18.91,5.98z"></path> </g> </g> </svg> 